<svg xmlns="http://www.w3.org/2000/svg" width="9.329" height="5.51" viewBox="0 0 9.329 5.51"><defs><style>.a{fill:#fff;}</style></defs><g transform="translate(0 -100.698)"><g transform="translate(0 100.698)"><path class="a" d="M9.18,101.159l-.306-.308a.512.512,0,0,0-.722,0l-3.486,3.486-3.49-3.49a.512.512,0,0,0-.722,0l-.306.306a.511.511,0,0,0,0,.722l4.155,4.17a.522.522,0,0,0,.362.164h0a.521.521,0,0,0,.361-.164l4.151-4.159a.515.515,0,0,0,.149-.365A.51.51,0,0,0,9.18,101.159Z" transform="translate(0 -100.698)"/></g></g></svg>