<svg xmlns="http://www.w3.org/2000/svg" width="24.658" height="15.742" viewBox="0 0 24.658 15.742"><defs><style>.a{fill:#6bad44;}</style></defs><g transform="translate(-417.857 -275.404)"><path class="a" d="M442.46,275.713c-.016-.045-.008-.1-.04-.137-.006-.01-.016-.008-.023-.014a.408.408,0,0,0-.146-.083.374.374,0,0,0-.152-.063c-.008,0-.016-.012-.027-.012H418.3c-.011,0-.017.011-.028.012a.39.39,0,0,0-.153.064.42.42,0,0,0-.141.082c-.006.007-.019,0-.026.014-.031.041-.023.092-.038.137s-.055.082-.055.134V290.7a.442.442,0,0,0,.441.443h23.774a.443.443,0,0,0,.443-.443V275.847C442.515,275.795,442.477,275.76,442.46,275.713Zm-12.277,8.79-10.592-8.215h21.19Zm-11.439,5.758V276.748l8.413,6.528-6.338,4.915a.44.44,0,0,0-.079.621.435.435,0,0,0,.349.171.45.45,0,0,0,.272-.093l6.517-5.056,2.036,1.579a.438.438,0,0,0,.542,0l2.037-1.577,6.521,5.054a.442.442,0,0,0,.62-.078.441.441,0,0,0-.078-.621l-6.342-4.915,8.417-6.528v13.513Z" transform="translate(0 0)"/></g></svg>