<?xml version="1.0" encoding="UTF-8"?>
<svg width="191px" height="142px" viewBox="0 0 191 142" version="1.1" xmlns="http://www.w3.org/2000/svg" xmlns:xlink="http://www.w3.org/1999/xlink">
    <!-- Generator: Sketch 51.3 (57544) - http://www.bohemiancoding.com/sketch -->
    <title>Group 2</title>
    <desc>Created with Sketch.</desc>
    <defs></defs>
    <g id="Provider-UI" stroke="none" stroke-width="1" fill="none" fill-rule="evenodd">
        <g id="Error-Message" transform="translate(-698.000000, -191.000000)">
            <g id="Group-2" transform="translate(699.000000, 191.000000)">
                <circle id="Oval-4" fill="#F1F8F9" fill-rule="nonzero" cx="90.8398438" cy="71.2539062" r="70.5"></circle>
                <circle id="Oval" stroke="#F1F8F9" stroke-width="0.84" fill="#F1F8F9" fill-rule="nonzero" cx="183.703236" cy="45.6610637" r="5.86558593"></circle>
                <rect id="Rectangle-11" stroke="#F1F8F9" stroke-width="0.84" fill="#F1F8F9" fill-rule="nonzero" x="109.323609" y="17.7122104" width="56.2502426" height="11.9174243" rx="5.95871214"></rect>
                <rect id="Rectangle-11-Copy" stroke="#F1F8F9" stroke-width="0.84" fill="#F1F8F9" fill-rule="nonzero" x="117.928119" y="39.7268191" width="56.2502426" height="11.9174243" rx="5.95871214"></rect>
                <rect id="Rectangle-11-Copy-2" fill="#F1F8F9" fill-rule="nonzero" x="8.09338149" y="96.418719" width="56.2502426" height="11.9174243" rx="5.95871214"></rect>
                <rect id="Rectangle-11-Copy-3" fill="#F1F8F9" fill-rule="nonzero" x="19.8842362" y="116.138936" width="56.2502426" height="8.65666597" rx="4.32833298"></rect>
                <rect id="Rectangle-11-Copy-4" stroke="#F1F8F9" stroke-width="0.84" fill="#F1F8F9" fill-rule="nonzero" x="0.372791019" y="116.138936" width="15.4411809" height="8.65666597" rx="4.32833298"></rect>
                <path d="M108.199778,44.5832808 L108.199778,40.644049 C108.199778,40.0475815 107.716246,39.564049 107.119778,39.564049 L67.4722634,39.564049 C66.8757959,39.564049 66.3922634,40.0475815 66.3922634,40.644049 L66.3922634,97.073241 C66.3922634,97.6697086 66.8757959,98.153241 67.4722634,98.153241 L71.8406358,98.153241" id="Path-11" stroke="#A8CBE8" stroke-width="2.16" fill-rule="nonzero"></path>
                <g id="Group" transform="translate(34.063131, 10.733103)" stroke="#BBCDDF">
                    <g id="Group-7" transform="translate(0.453999, 0.000000)">
                        <g id="Group-12" transform="translate(0.252220, 0.152253)">
                            <circle id="Oval-7" fill="#FFFFFF" cx="17.6564499" cy="19.917841" r="2.56007283"></circle>
                            <circle id="Oval-7-Copy-2" fill="#FFFFFF" cx="90.395244" cy="27.2538392" r="2.56007283"></circle>
                            <circle id="Oval-7-Copy-3" fill="#FFFFFF" cx="3.12807381" cy="75.2559816" r="2.56007283"></circle>
                            <g id="Group-11" transform="translate(72.407941, 6.363961) rotate(-315.000000) translate(-72.407941, -6.363961) translate(67.907941, 1.863961)" stroke-linecap="round">
                                <path d="M3.94826,0.275925999 L3.94826,8.33964466" id="Path-15"></path>
                                <path d="M8.20085286,4.52851885 L0.137134189,4.52851885" id="Path-15-Copy-3"></path>
                            </g>
                            <g id="Group-11-Copy-3" transform="translate(15.955153, 46.964689) rotate(-315.000000) translate(-15.955153, -46.964689) translate(11.455153, 42.464689)" stroke-linecap="round">
                                <path d="M3.94826,0.275925999 L3.94826,8.33964466" id="Path-15"></path>
                                <path d="M8.20085286,4.52851885 L0.137134189,4.52851885" id="Path-15-Copy-3"></path>
                            </g>
                            <g id="Group-11-Copy" transform="translate(105.260056, 56.330674) rotate(-315.000000) translate(-105.260056, -56.330674) translate(100.760056, 51.830674)" stroke-linecap="round">
                                <path d="M3.94826,0.275925999 L3.94826,8.33964466" id="Path-15"></path>
                                <path d="M8.20085286,4.52851885 L0.137134189,4.52851885" id="Path-15-Copy-3"></path>
                            </g>
                        </g>
                    </g>
                </g>
                <rect id="Rectangle-9-Copy-2" fill="#B9D8F2" fill-rule="nonzero" opacity="0.459988839" x="114.652318" y="113.494717" width="13.7984922" height="2" rx="1"></rect>
                <rect id="Rectangle-9-Copy-5" fill="#B9D8F2" fill-rule="nonzero" opacity="0.459988839" x="55.0632217" y="113.494717" width="13.7984922" height="2" rx="1"></rect>
                <path d="M76.4708064,113.682635 L108.655455,113.682635 C109.207739,113.682635 109.655455,114.13035 109.655455,114.682635 L109.655455,114.682635 C109.655455,115.234919 109.207739,115.682635 108.655455,115.682635 L76.4708064,115.682635 C75.9185216,115.682635 75.4708064,115.234919 75.4708064,114.682635 L75.4708064,114.682635 C75.4708064,114.13035 75.9185216,113.682635 76.4708064,113.682635 Z" id="Rectangle-9-Copy-4" fill="#B9D8F2" fill-rule="nonzero" opacity="0.459988839"></path>
                <rect id="Rectangle-9-Copy-3" fill="#B9D8F2" fill-rule="nonzero" opacity="0.459988839" x="121.652318" y="105.494717" width="13.7984922" height="2" rx="1"></rect>
                <rect id="Rectangle-9-Copy-7" fill="#B9D8F2" fill-rule="nonzero" opacity="0.459988839" x="47.0632217" y="105.494717" width="13.7984922" height="2" rx="1"></rect>
                <g id="error-(1)" transform="translate(74.564664, 47.904925)" fill="#A8CBE8" fill-rule="nonzero">
                    <path d="M1.12273697,46.9335876 C1.74287377,46.9335876 2.24547394,46.4309874 2.24547394,45.8108507 L2.24547394,2.24547394 L40.9176225,2.24547394 L40.9176225,6.29138642 C40.9176225,6.91108468 41.4202228,7.41412339 42.0403595,7.41412339 C42.6604963,7.41412339 43.1630965,6.91108468 43.1630965,6.29138642 L43.1630965,1.12273697 C43.1630965,0.502600165 42.6604963,0 42.0403595,0 L1.12273697,0 C0.502600165,0 0,0.502600165 0,1.12273697 L0,45.8108507 C0,46.4309874 0.502600165,46.9335876 1.12273697,46.9335876 Z" id="Shape"></path>
                    <path d="M12.7806525,35.958674 C15.0264771,34.1492453 18.2341965,33.1112267 21.5815344,33.1112267 C24.9288724,33.1112267 28.1365917,34.1492453 30.3824162,35.958674 C30.5483448,36.0926798 30.7475995,36.1575779 30.945451,36.1575779 C31.2074989,36.1575779 31.4677929,36.0432169 31.6452979,35.8229143 C31.9564579,35.4366829 31.8954186,34.8711926 31.5091873,34.5600326 C28.950098,32.4980275 25.3312404,31.3151284 21.5815344,31.3151284 C17.8318283,31.3151284 14.2129708,32.4980275 11.6538814,34.5600326 C11.2672994,34.8711926 11.2066108,35.4366829 11.5177709,35.8229143 C11.8289309,36.2087947 12.3944212,36.2701848 12.7806525,35.958674 Z" id="Shape"></path>
                    <path d="M32.8324183,15.9407528 C32.4381008,15.5460406 31.7982723,15.5460406 31.4035601,15.9407528 L29.1201499,18.2241631 L26.836345,15.9407528 C26.4420276,15.5460406 25.8021991,15.5460406 25.4074869,15.9407528 C25.0127747,16.3350704 25.0127747,16.9748988 25.4074869,17.3696111 L27.690897,19.6530212 L25.4074869,21.9368261 C25.0127747,22.3311437 25.0127747,22.9709721 25.4074869,23.3656843 C25.8018043,23.7603966 26.4416328,23.7603966 26.836345,23.3656843 L29.1201499,21.0822742 L31.4035601,23.3656843 C31.6009162,23.5630405 31.8594527,23.6617186 32.1179892,23.6617186 C32.3765258,23.6617186 32.6350622,23.5630405 32.8324183,23.3656843 C33.2271305,22.9709721 33.2271305,22.3311437 32.8324183,21.9368261 L30.5490082,19.6530212 L32.8324183,17.3696111 C33.2271305,16.9748988 33.2271305,16.3350704 32.8324183,15.9407528 Z" id="Shape"></path>
                    <path d="M10.3306643,23.3656843 C10.7249818,23.7600019 11.3648103,23.7600019 11.7595225,23.3652897 L14.0429328,21.0818795 L16.3263429,23.3652897 C16.523699,23.5626458 16.7822354,23.6613238 17.040772,23.6613238 C17.2993085,23.6613238 17.5582397,23.5626458 17.7552011,23.3652897 C18.1499133,22.9709721 18.1499133,22.3311437 17.7555958,21.9364314 L15.4721857,19.6530212 L17.7555958,17.3692164 C18.1499133,16.9748988 18.1499133,16.3350704 17.7552011,15.9403581 C17.3608836,15.5460406 16.7210551,15.5456459 16.3263429,15.9403581 L14.0429328,18.2237683 L11.7595225,15.9403581 C11.3648103,15.5456459 10.7249818,15.5456459 10.3306643,15.9403581 C9.93595208,16.3350704 9.93595208,16.9748988 10.3306643,17.3692164 L12.6140744,19.6530212 L10.3306643,21.9364314 C9.93595208,22.3311437 9.93595208,22.9709721 10.3306643,23.3656843 Z" id="Shape"></path>
                    <path d="M1.12273697,51.4245355 C1.74111939,51.4245355 2.24547394,50.9206195 2.24547394,50.3017986 C2.24547394,49.683416 1.74111939,49.1790616 1.12273697,49.1790616 C0.504354554,49.1790616 0,49.683416 0,50.3017986 C0,50.9206195 0.504354554,51.4245355 1.12273697,51.4245355 Z" id="Shape"></path>
                    <path d="M42.0403595,9.65959733 C41.4219771,9.65959733 40.9176225,10.1635133 40.9176225,10.7823343 C40.9176225,11.4007168 41.4219771,11.9050713 42.0403595,11.9050713 C42.658742,11.9050713 43.1630965,11.4007168 43.1630965,10.7823343 C43.1630965,10.1635133 42.658742,9.65959733 42.0403595,9.65959733 Z" id="Shape"></path>
                    <path d="M42.0403595,14.1505452 C41.4202228,14.1505452 40.9176225,14.6531455 40.9176225,15.2732822 L40.9176225,45.3600016 L30.3617022,45.3600016 C29.7415655,45.3600016 29.2389652,45.8626018 29.2389652,46.4827386 L29.2389652,57.0386589 L2.24547394,57.0386589 L2.24547394,54.7927464 C2.24547394,54.1730482 1.74287377,53.6700095 1.12273697,53.6700095 C0.502600165,53.6700095 2.84217094e-14,54.1730482 2.84217094e-14,54.7927464 L2.84217094e-14,58.1613959 C2.84217094e-14,58.7815327 0.502600165,59.2841328 1.12273697,59.2841328 L30.3617022,59.2841328 C30.3674036,59.2841328 30.373105,59.2832558 30.379245,59.2832558 C30.4099448,59.2828171 30.4406446,59.2815014 30.4713445,59.27887 C30.4902029,59.2771157 30.5086229,59.2731686 30.5270428,59.2705372 C30.5445856,59.2679058 30.5625669,59.2661515 30.5796711,59.262643 C30.5985295,59.2591344 30.6169495,59.253433 30.635808,59.2490473 C30.6524736,59.2446617 30.6695778,59.2411531 30.6862433,59.2363288 C30.7037861,59.231066 30.7204518,59.2240489 30.737556,59.2179089 C30.7550988,59.211769 30.7726415,59.2065061 30.7897457,59.199489 C30.8050956,59.1929105 30.8200069,59.1850163 30.8349183,59.1779992 C30.8533383,59.1696663 30.8717581,59.161772 30.8893009,59.1525621 C30.9033351,59.1451065 30.9169308,59.1363351 30.9305264,59.1280022 C30.9485077,59.1174766 30.966489,59.1078281 30.9835933,59.0959867 C30.9998203,59.0854611 31.0147317,59.0731811 31.0300815,59.0617783 C31.0445543,59.0512526 31.0590272,59.0416041 31.0726227,59.0302013 C31.1015683,59.0069572 31.1291982,58.9819587 31.1555124,58.9552059 L42.8341697,47.2765486 C42.8696937,47.2410246 42.9017094,47.202869 42.931532,47.1633979 C42.9394263,47.1537493 42.9468819,47.1436623 42.953899,47.1335752 C42.9819674,47.0936653 43.0087201,47.053317 43.0315258,47.0103373 C43.0328415,47.0077058 43.0337187,47.0050743 43.0350344,47.002443 C43.0560857,46.9616561 43.0745056,46.9195534 43.090294,46.8765736 C43.0946798,46.8651709 43.0990654,46.8533295 43.1030125,46.8414881 C43.1183625,46.7958769 43.1319581,46.7498271 43.1416066,46.7024617 C43.1416066,46.7015846 43.1416066,46.7007074 43.1420451,46.6993917 C43.1508166,46.6533419 43.1560794,46.6059765 43.1591494,46.558611 C43.1604651,46.5458925 43.1609036,46.5331741 43.1613423,46.5204555 C43.1617808,46.507737 43.1630965,46.4954571 43.1630965,46.4827386 L43.1630965,15.2732822 C43.1630965,14.6531455 42.6604963,14.1505452 42.0403595,14.1505452 Z M31.4844392,55.4510387 L31.4844392,47.6054755 L39.3295637,47.6054755 L31.4844392,55.4510387 Z" id="Shape"></path>
                </g>
            </g>
        </g>
    </g>
</svg>