<svg xmlns="http://www.w3.org/2000/svg" width="20.932" height="26.904" viewBox="0 0 20.932 26.904"><defs><style>.a{fill:#6bad44;}</style></defs><g transform="translate(-399.628 -938.466)"><g transform="translate(399.628 938.466)"><path class="a" d="M404.605,945.4a.481.481,0,0,0,.482-.48,5.485,5.485,0,1,1,10.97,0,.481.481,0,0,0,.962,0,6.447,6.447,0,1,0-12.894,0A.48.48,0,0,0,404.605,945.4Z" transform="translate(-400.105 -938.466)"/><path class="a" d="M416.037,947.011h0a10.569,10.569,0,0,0-11.88-.005l0,0a10.467,10.467,0,1,0,11.885,0Zm-5.945,18.109a9.5,9.5,0,1,1,5.395-17.32h0a9.5,9.5,0,0,1-5.4,17.32Z" transform="translate(-399.628 -939.178)"/><path class="a" d="M408.921,951.552a2.971,2.971,0,0,0-.943,2.169,3,3,0,0,0,1.262,2.434v3.8a1.739,1.739,0,0,0,2.975,1.225,1.712,1.712,0,0,0,.5-1.225v-3.8a3,3,0,0,0,1.262-2.434,2.971,2.971,0,0,0-.941-2.167A3.029,3.029,0,0,0,408.921,951.552ZM412,955.477a.482.482,0,0,0-.241.416v4.059a.757.757,0,0,1-.224.544.777.777,0,0,1-1.332-.546v-4.058a.483.483,0,0,0-.241-.416,2.04,2.04,0,1,1,2.038,0Z" transform="translate(-400.514 -939.768)"/></g></g></svg>