<svg xmlns="http://www.w3.org/2000/svg" xmlns:xlink="http://www.w3.org/1999/xlink" width="109.774" height="25" viewBox="0 0 109.774 25"><defs><style>.a{fill:url(#a);}.b{fill:url(#b);}.c{fill:url(#c);}.d{fill:url(#d);}.e{fill:url(#e);}</style><linearGradient id="a" x1="0.491" y1="-0.14" x2="0.51" y2="1.214" gradientUnits="objectBoundingBox"><stop offset="0" stop-color="#96bb2f"/><stop offset="0.995" stop-color="#679e30"/></linearGradient><linearGradient id="b" x1="0.447" y1="-0.063" x2="0.551" y2="1.043" xlink:href="#a"/><linearGradient id="c" x1="0" y1="0.5" x2="1" y2="0.5" xlink:href="#a"/><linearGradient id="d" x1="0.479" y1="0.268" x2="0.497" y2="0.895" gradientUnits="objectBoundingBox"><stop offset="0" stop-color="#439ed9"/><stop offset="0.995" stop-color="#0e6eb7"/></linearGradient><linearGradient id="e" x1="0.521" y1="-0.087" x2="0.508" y2="0.597" xlink:href="#d"/></defs><g transform="translate(-273.692 -689.18)"><path class="a" d="M1342.838,694.128V689.18h-24.948s-6.185.361-6.185,7.32c0,7.01,5.979,7.423,5.979,7.423h17.525s2.784.155,2.784,2.526-2.526,2.732-2.526,2.732H1311.5v4.9s24.33.232,25.876,0,5.67-1.908,5.464-7.783c-.235-6.7-6.649-7.01-6.649-7.01h-18.247s-1.65-.155-1.65-2.835a2.691,2.691,0,0,1,1.753-2.577Z" transform="translate(-959.379 0)"/><rect class="b" width="4.948" height="24.897" transform="translate(343.743 689.18)"/><path class="c" d="M843.529,714.076l-20.412-22.99,8.737,7.268,8.273-9.175h5.1v1.134l-9.665,10.825.077.49,13.144,12.448Z" transform="translate(-507.905)"/><path class="d" d="M786.489,723.155h-4.562l-6.185-7.99-6.8,7.99h-6.186L772.8,711.686,764.988,699Z" transform="translate(-452.102 -9.078)"/><path class="e" d="M303.383,714.076h5.8l-14.768-24.9h-5.8l-14.922,24.9h6.031L291.437,694.1Z"/></g></svg>