<svg xmlns="http://www.w3.org/2000/svg" width="15.3" height="15.3" viewBox="0 0 15.3 15.3"><defs><style>.a{fill:#fff;}</style></defs><path class="a" d="M16.3,11H14.338a5.731,5.731,0,0,1-.729,1.737L15,14.123l-1.89,1.89-1.386-1.386A5.784,5.784,0,0,1,10,15.338V17.3H7.3V15.338a5.784,5.784,0,0,1-1.719-.711L4.2,16.013,2.287,14.105l1.386-1.386A5.784,5.784,0,0,1,2.962,11H1V8.327H2.953a5.862,5.862,0,0,1,.72-1.746L2.287,5.2l1.89-1.89L5.563,4.691A5.828,5.828,0,0,1,7.3,3.962V2H10V3.962a5.784,5.784,0,0,1,1.719.711l1.386-1.386L15.013,5.2,13.627,6.581a5.862,5.862,0,0,1,.72,1.746H16.3ZM8.65,12.35a2.7,2.7,0,1,0-2.7-2.7A2.7,2.7,0,0,0,8.65,12.35Z" transform="translate(-1 -2)"/></svg>